# xmcd
#
# Track frame offsets:
# 150
# 15386
# 30382
# 42782
# 57815
# 78410
# 93245
# 107872
# 123472
# 137521
# 155296
# 171864
# 191397
# 204858
# 222612
# 238451
# 254373
# 270909
# 282065
#
# Disc length: 4119 seconds
#
# Revision: 0
# Processed by: cddbd v1.5.1PL0 Copyright (c) Steve Scherf et al.
# Submitted via: plextools 2.24b
#
DISCID=fa101513
DTITLE=Various Artist - ルパン三世 テーマコレクション
DYEAR=1900
DGENRE=Blues
TTITLE0=ルパン三世 '78
TTITLE1=LOVIN' YOU（LUCKY）
TTITLE2=ルパン三世 愛のテーマ
TTITLE3=ルパン三世のテーマ
TTITLE4=I MISS YOU BABE（YES, I DO）
TTITLE5=ルパン三世 愛のテーマ
TTITLE6=ルパン三世 '79
TTITLE7=LAVE SQUALL
TTITLE8=炎のたからもの
TTITLE9=回想のミステリアス・ジャーニー
TTITLE10=ルパン三世 '80
TTITLE11=LEAVE YOU
TTITLE12=SUPER HERO
TTITLE13=LOVE IS EVERYTHING
TTITLE14=セクシー・アドベンチャー
TTITLE15=フェアリー・ナイト
TTITLE16=MANHATTAN JOKE
TTITLE17=SONG OF BABYLON
TTITLE18=GEORGIA MOON（THE BALLAD FOR LUPIN）
EXTD=
EXTT0=
EXTT1=
EXTT2=
EXTT3=
EXTT4=
EXTT5=
EXTT6=
EXTT7=
EXTT8=
EXTT9=
EXTT10=
EXTT11=
EXTT12=
EXTT13=
EXTT14=
EXTT15=
EXTT16=
EXTT17=
EXTT18=
PLAYORDER=
